<svg width="1432" height="731" xmlns="http://www.w3.org/2000/svg"><g><path d="M-57,-107L-108,252L-54,49Z" fill="#f4f2fb" stroke="#f4f2fb" fill-opacity="1" stroke-opacity="1"/><path d="M-57,-107L-54,49L60,-52Z" fill="#f7f4f9" stroke="#f7f4f9" fill-opacity="1" stroke-opacity="1"/><path d="M-57,-107L60,-52L275,-121Z" fill="#efeff7" stroke="#efeff7" fill-opacity="1" stroke-opacity="1"/><path d="M60,-52L-54,49L32,134Z" fill="#f0f0f8" stroke="#f0f0f8" fill-opacity="1" stroke-opacity="1"/><path d="M60,-52L32,134L187,95Z" fill="#e8ecf7" stroke="#e8ecf7" fill-opacity="1" stroke-opacity="1"/><path d="M60,-52L187,95L275,-121Z" fill="#e9ecf5" stroke="#e9ecf5" fill-opacity="1" stroke-opacity="1"/><path d="M275,-121L187,95L384,22Z" fill="#e1e7f2" stroke="#e1e7f2" fill-opacity="1" stroke-opacity="1"/><path d="M275,-121L384,22L418,-75Z" fill="#dbe3f0" stroke="#dbe3f0" fill-opacity="1" stroke-opacity="1"/><path d="M275,-121L418,-75L494,-117Z" fill="#d9e2ef" stroke="#d9e2ef" fill-opacity="1" stroke-opacity="1"/><path d="M275,-121L494,-117L679,-122Z" fill="#d2deed" stroke="#d2deed" fill-opacity="1" stroke-opacity="1"/><path d="M418,-75L384,22L547,100Z" fill="#d3deee" stroke="#d3deee" fill-opacity="1" stroke-opacity="1"/><path d="M418,-75L547,100L494,-117Z" fill="#d2deed" stroke="#d2deed" fill-opacity="1" stroke-opacity="1"/><path d="M494,-117L547,100L679,-122Z" fill="#c6d9ea" stroke="#c6d9ea" fill-opacity="1" stroke-opacity="1"/><path d="M679,-122L547,100L682,99Z" fill="#bbd5e8" stroke="#bbd5e8" fill-opacity="1" stroke-opacity="1"/><path d="M679,-122L682,99L837,-30Z" fill="#b2d1e5" stroke="#b2d1e5" fill-opacity="1" stroke-opacity="1"/><path d="M679,-122L837,-30L952,-45Z" fill="#a6cde3" stroke="#a6cde3" fill-opacity="1" stroke-opacity="1"/><path d="M679,-122L952,-45L1148,-104Z" fill="#99c7e0" stroke="#99c7e0" fill-opacity="1" stroke-opacity="1"/><path d="M679,-122L1148,-104L1300,-115Z" fill="#8ac1dc" stroke="#8ac1dc" fill-opacity="1" stroke-opacity="1"/><path d="M837,-30L682,99L878,94Z" fill="#a3cae3" stroke="#a3cae3" fill-opacity="1" stroke-opacity="1"/><path d="M837,-30L878,94L952,-45Z" fill="#9dc9e1" stroke="#9dc9e1" fill-opacity="1" stroke-opacity="1"/><path d="M952,-45L878,94L975,69Z" fill="#93c4df" stroke="#93c4df" fill-opacity="1" stroke-opacity="1"/><path d="M952,-45L975,69L1067,99Z" fill="#8bc1dd" stroke="#8bc1dd" fill-opacity="1" stroke-opacity="1"/><path d="M952,-45L1067,99L1148,-104Z" fill="#88c1dc" stroke="#88c1dc" fill-opacity="1" stroke-opacity="1"/><path d="M1148,-104L1067,99L1308,130Z" fill="#7bb8d8" stroke="#7bb8d8" fill-opacity="1" stroke-opacity="1"/><path d="M1148,-104L1308,130L1300,-115Z" fill="#80b6d6" stroke="#80b6d6" fill-opacity="1" stroke-opacity="1"/><path d="M1300,-115L1308,130L1410,-69Z" fill="#80b2d3" stroke="#80b2d3" fill-opacity="1" stroke-opacity="1"/><path d="M1300,-115L1410,-69L1608,-90Z" fill="#80add0" stroke="#80add0" fill-opacity="1" stroke-opacity="1"/><path d="M1410,-69L1308,130L1436,33Z" fill="#7caed2" stroke="#7caed2" fill-opacity="1" stroke-opacity="1"/><path d="M1410,-69L1436,33L1608,-90Z" fill="#80abcf" stroke="#80abcf" fill-opacity="1" stroke-opacity="1"/><path d="M1608,-90L1436,33L1578,79Z" fill="#7fa7cd" stroke="#7fa7cd" fill-opacity="1" stroke-opacity="1"/><path d="M1608,-90L1578,79L1584,340Z" fill="#739ecb" stroke="#739ecb" fill-opacity="1" stroke-opacity="1"/><path d="M1608,-90L1584,340L1630,873Z" fill="#3c86c3" stroke="#3c86c3" fill-opacity="1" stroke-opacity="1"/><path d="M-54,49L-108,252L32,134Z" fill="#e8ecfa" stroke="#e8ecfa" fill-opacity="1" stroke-opacity="1"/><path d="M32,134L-108,252L41,264Z" fill="#dde6f9" stroke="#dde6f9" fill-opacity="1" stroke-opacity="1"/><path d="M32,134L41,264L187,95Z" fill="#dce5f7" stroke="#dce5f7" fill-opacity="1" stroke-opacity="1"/><path d="M187,95L41,264L264,232Z" fill="#d3e0f5" stroke="#d3e0f5" fill-opacity="1" stroke-opacity="1"/><path d="M187,95L264,232L319,238Z" fill="#cddcf3" stroke="#cddcf3" fill-opacity="1" stroke-opacity="1"/><path d="M187,95L319,238L384,22Z" fill="#d2dff2" stroke="#d2dff2" fill-opacity="1" stroke-opacity="1"/><path d="M384,22L319,238L514,178Z" fill="#c7d8ef" stroke="#c7d8ef" fill-opacity="1" stroke-opacity="1"/><path d="M384,22L514,178L547,100Z" fill="#c7d8ed" stroke="#c7d8ed" fill-opacity="1" stroke-opacity="1"/><path d="M547,100L514,178L682,99Z" fill="#b7d1ea" stroke="#b7d1ea" fill-opacity="1" stroke-opacity="1"/><path d="M682,99L514,178L729,179Z" fill="#accce8" stroke="#accce8" fill-opacity="1" stroke-opacity="1"/><path d="M682,99L729,179L878,94Z" fill="#9fc8e5" stroke="#9fc8e5" fill-opacity="1" stroke-opacity="1"/><path d="M878,94L729,179L872,201Z" fill="#93c3e3" stroke="#93c3e3" fill-opacity="1" stroke-opacity="1"/><path d="M878,94L872,201L998,216Z" fill="#86bde0" stroke="#86bde0" fill-opacity="1" stroke-opacity="1"/><path d="M878,94L998,216L975,69Z" fill="#87bedf" stroke="#87bedf" fill-opacity="1" stroke-opacity="1"/><path d="M975,69L998,216L1067,99Z" fill="#7fbbdd" stroke="#7fbbdd" fill-opacity="1" stroke-opacity="1"/><path d="M1067,99L998,216L1181,200Z" fill="#71b5db" stroke="#71b5db" fill-opacity="1" stroke-opacity="1"/><path d="M1067,99L1181,200L1308,130Z" fill="#6fb1d8" stroke="#6fb1d8" fill-opacity="1" stroke-opacity="1"/><path d="M1308,130L1181,200L1260,277Z" fill="#68aad6" stroke="#68aad6" fill-opacity="1" stroke-opacity="1"/><path d="M1308,130L1260,277L1420,269Z" fill="#65a5d3" stroke="#65a5d3" fill-opacity="1" stroke-opacity="1"/><path d="M1308,130L1420,269L1436,33Z" fill="#6fa7d2" stroke="#6fa7d2" fill-opacity="1" stroke-opacity="1"/><path d="M1436,33L1420,269L1563,220Z" fill="#6ba1cf" stroke="#6ba1cf" fill-opacity="1" stroke-opacity="1"/><path d="M1436,33L1563,220L1578,79Z" fill="#73a1cd" stroke="#73a1cd" fill-opacity="1" stroke-opacity="1"/><path d="M1578,79L1563,220L1584,340Z" fill="#6799cc" stroke="#6799cc" fill-opacity="1" stroke-opacity="1"/><path d="M-108,252L-121,644L-19,428Z" fill="#a4d0ef" stroke="#a4d0ef" fill-opacity="1" stroke-opacity="1"/><path d="M-108,252L-19,428L41,264Z" fill="#c6ddf5" stroke="#c6ddf5" fill-opacity="1" stroke-opacity="1"/><path d="M41,264L-19,428L122,414Z" fill="#b0d3f1" stroke="#b0d3f1" fill-opacity="1" stroke-opacity="1"/><path d="M41,264L122,414L173,373Z" fill="#b1d3f0" stroke="#b1d3f0" fill-opacity="1" stroke-opacity="1"/><path d="M41,264L173,373L264,232Z" fill="#c0d8f2" stroke="#c0d8f2" fill-opacity="1" stroke-opacity="1"/><path d="M264,232L173,373L319,238Z" fill="#bbd5f1" stroke="#bbd5f1" fill-opacity="1" stroke-opacity="1"/><path d="M319,238L173,373L434,331Z" fill="#aeceed" stroke="#aeceed" fill-opacity="1" stroke-opacity="1"/><path d="M319,238L434,331L514,178Z" fill="#b9d1ee" stroke="#b9d1ee" fill-opacity="1" stroke-opacity="1"/><path d="M514,178L434,331L498,354Z" fill="#a8caeb" stroke="#a8caeb" fill-opacity="1" stroke-opacity="1"/><path d="M514,178L498,354L617,415Z" fill="#98c3e7" stroke="#98c3e7" fill-opacity="1" stroke-opacity="1"/><path d="M514,178L617,415L729,179Z" fill="#a0c6e8" stroke="#a0c6e8" fill-opacity="1" stroke-opacity="1"/><path d="M729,179L617,415L815,359Z" fill="#80bae1" stroke="#80bae1" fill-opacity="1" stroke-opacity="1"/><path d="M729,179L815,359L872,201Z" fill="#8bbee3" stroke="#8bbee3" fill-opacity="1" stroke-opacity="1"/><path d="M872,201L815,359L998,216Z" fill="#7cb8e0" stroke="#7cb8e0" fill-opacity="1" stroke-opacity="1"/><path d="M998,216L815,359L1014,416Z" fill="#60adda" stroke="#60adda" fill-opacity="1" stroke-opacity="1"/><path d="M998,216L1014,416L1121,394Z" fill="#50a7d7" stroke="#50a7d7" fill-opacity="1" stroke-opacity="1"/><path d="M998,216L1121,394L1181,200Z" fill="#5eacd9" stroke="#5eacd9" fill-opacity="1" stroke-opacity="1"/><path d="M1181,200L1121,394L1260,277Z" fill="#55a5d5" stroke="#55a5d5" fill-opacity="1" stroke-opacity="1"/><path d="M1260,277L1121,394L1266,324Z" fill="#499fd2" stroke="#499fd2" fill-opacity="1" stroke-opacity="1"/><path d="M1260,277L1266,324L1412,318Z" fill="#509dd0" stroke="#509dd0" fill-opacity="1" stroke-opacity="1"/><path d="M1260,277L1412,318L1420,269Z" fill="#569cd0" stroke="#569cd0" fill-opacity="1" stroke-opacity="1"/><path d="M1420,269L1412,318L1584,340Z" fill="#5094cb" stroke="#5094cb" fill-opacity="1" stroke-opacity="1"/><path d="M1420,269L1584,340L1563,220Z" fill="#5996cc" stroke="#5996cc" fill-opacity="1" stroke-opacity="1"/><path d="M-19,428L-121,644L-31,568Z" fill="#82c3e9" stroke="#82c3e9" fill-opacity="1" stroke-opacity="1"/><path d="M-19,428L-31,568L33,504Z" fill="#8cc6ea" stroke="#8cc6ea" fill-opacity="1" stroke-opacity="1"/><path d="M-19,428L33,504L122,414Z" fill="#98caec" stroke="#98caec" fill-opacity="1" stroke-opacity="1"/><path d="M122,414L33,504L224,631Z" fill="#7ebee6" stroke="#7ebee6" fill-opacity="1" stroke-opacity="1"/><path d="M122,414L224,631L282,534Z" fill="#74bae4" stroke="#74bae4" fill-opacity="1" stroke-opacity="1"/><path d="M122,414L282,534L173,373Z" fill="#90c4e9" stroke="#90c4e9" fill-opacity="1" stroke-opacity="1"/><path d="M173,373L282,534L434,331Z" fill="#91c3e8" stroke="#91c3e8" fill-opacity="1" stroke-opacity="1"/><path d="M434,331L282,534L516,518Z" fill="#7ab8e2" stroke="#7ab8e2" fill-opacity="1" stroke-opacity="1"/><path d="M434,331L516,518L498,354Z" fill="#86bce4" stroke="#86bce4" fill-opacity="1" stroke-opacity="1"/><path d="M498,354L516,518L617,415Z" fill="#76b6e1" stroke="#76b6e1" fill-opacity="1" stroke-opacity="1"/><path d="M617,415L516,518L670,480Z" fill="#62aedc" stroke="#62aedc" fill-opacity="1" stroke-opacity="1"/><path d="M617,415L670,480L815,359Z" fill="#65afdc" stroke="#65afdc" fill-opacity="1" stroke-opacity="1"/><path d="M815,359L670,480L856,515Z" fill="#51a7d8" stroke="#51a7d8" fill-opacity="1" stroke-opacity="1"/><path d="M815,359L856,515L981,472Z" fill="#44a2d5" stroke="#44a2d5" fill-opacity="1" stroke-opacity="1"/><path d="M815,359L981,472L1014,416Z" fill="#47a3d5" stroke="#47a3d5" fill-opacity="1" stroke-opacity="1"/><path d="M1014,416L981,472L1160,522Z" fill="#2897cf" stroke="#2897cf" fill-opacity="1" stroke-opacity="1"/><path d="M1014,416L1160,522L1121,394Z" fill="#2a97cf" stroke="#2a97cf" fill-opacity="1" stroke-opacity="1"/><path d="M1121,394L1160,522L1266,324Z" fill="#3097ce" stroke="#3097ce" fill-opacity="1" stroke-opacity="1"/><path d="M1266,324L1160,522L1313,521Z" fill="#238fca" stroke="#238fca" fill-opacity="1" stroke-opacity="1"/><path d="M1266,324L1313,521L1412,318Z" fill="#3892cb" stroke="#3892cb" fill-opacity="1" stroke-opacity="1"/><path d="M1412,318L1313,521L1376,541Z" fill="#2288c6" stroke="#2288c6" fill-opacity="1" stroke-opacity="1"/><path d="M1412,318L1376,541L1579,551Z" fill="#1f82c3" stroke="#1f82c3" fill-opacity="1" stroke-opacity="1"/><path d="M1412,318L1579,551L1584,340Z" fill="#3386c4" stroke="#3386c4" fill-opacity="1" stroke-opacity="1"/><path d="M1584,340L1579,551L1602,734Z" fill="#0973bb" stroke="#0973bb" fill-opacity="1" stroke-opacity="1"/><path d="M1584,340L1602,734L1630,873Z" fill="#0065b3" stroke="#0065b3" fill-opacity="1" stroke-opacity="1"/><path d="M-31,568L-121,644L-29,772Z" fill="#7bb5e2" stroke="#7bb5e2" fill-opacity="1" stroke-opacity="1"/><path d="M-31,568L-29,772L105,733Z" fill="#75afdf" stroke="#75afdf" fill-opacity="1" stroke-opacity="1"/><path d="M-31,568L105,733L33,504Z" fill="#74b8e3" stroke="#74b8e3" fill-opacity="1" stroke-opacity="1"/><path d="M33,504L105,733L224,631Z" fill="#6db2e0" stroke="#6db2e0" fill-opacity="1" stroke-opacity="1"/><path d="M282,534L224,631L318,577Z" fill="#62b0df" stroke="#62b0df" fill-opacity="1" stroke-opacity="1"/><path d="M282,534L318,577L516,518Z" fill="#63b0df" stroke="#63b0df" fill-opacity="1" stroke-opacity="1"/><path d="M318,577L224,631L371,700Z" fill="#60a8db" stroke="#60a8db" fill-opacity="1" stroke-opacity="1"/><path d="M318,577L371,700L483,617Z" fill="#5aa5d9" stroke="#5aa5d9" fill-opacity="1" stroke-opacity="1"/><path d="M318,577L483,617L516,518Z" fill="#57aadb" stroke="#57aadb" fill-opacity="1" stroke-opacity="1"/><path d="M516,518L483,617L618,667Z" fill="#4ba2d7" stroke="#4ba2d7" fill-opacity="1" stroke-opacity="1"/><path d="M516,518L618,667L670,480Z" fill="#48a4d7" stroke="#48a4d7" fill-opacity="1" stroke-opacity="1"/><path d="M670,480L618,667L782,644Z" fill="#389ad2" stroke="#389ad2" fill-opacity="1" stroke-opacity="1"/><path d="M670,480L782,644L856,515Z" fill="#359cd3" stroke="#359cd3" fill-opacity="1" stroke-opacity="1"/><path d="M856,515L782,644L919,703Z" fill="#238fcc" stroke="#238fcc" fill-opacity="1" stroke-opacity="1"/><path d="M856,515L919,703L981,472Z" fill="#1d93cd" stroke="#1d93cd" fill-opacity="1" stroke-opacity="1"/><path d="M981,472L919,703L1069,675Z" fill="#1188c8" stroke="#1188c8" fill-opacity="1" stroke-opacity="1"/><path d="M981,472L1069,675L1160,522Z" fill="#0b8cc9" stroke="#0b8cc9" fill-opacity="1" stroke-opacity="1"/><path d="M1160,522L1069,675L1313,624Z" fill="#0080c3" stroke="#0080c3" fill-opacity="1" stroke-opacity="1"/><path d="M1160,522L1313,624L1313,521Z" fill="#0582c3" stroke="#0582c3" fill-opacity="1" stroke-opacity="1"/><path d="M1313,521L1313,624L1376,541Z" fill="#037dc1" stroke="#037dc1" fill-opacity="1" stroke-opacity="1"/><path d="M1376,541L1313,624L1400,649Z" fill="#0077be" stroke="#0077be" fill-opacity="1" stroke-opacity="1"/><path d="M1376,541L1400,649L1579,551Z" fill="#0075bc" stroke="#0075bc" fill-opacity="1" stroke-opacity="1"/><path d="M1579,551L1400,649L1602,734Z" fill="#006ab6" stroke="#006ab6" fill-opacity="1" stroke-opacity="1"/><path d="M105,733L-29,772L23,786Z" fill="#74a5da" stroke="#74a5da" fill-opacity="1" stroke-opacity="1"/><path d="M105,733L23,786L240,785Z" fill="#6da0d8" stroke="#6da0d8" fill-opacity="1" stroke-opacity="1"/><path d="M105,733L240,785L224,631Z" fill="#68a3d9" stroke="#68a3d9" fill-opacity="1" stroke-opacity="1"/><path d="M224,631L240,785L371,700Z" fill="#62a1d8" stroke="#62a1d8" fill-opacity="1" stroke-opacity="1"/><path d="M371,700L240,785L352,790Z" fill="#5f99d4" stroke="#5f99d4" fill-opacity="1" stroke-opacity="1"/><path d="M371,700L352,790L545,870Z" fill="#5791d0" stroke="#5791d0" fill-opacity="1" stroke-opacity="1"/><path d="M371,700L545,870L483,617Z" fill="#5496d2" stroke="#5496d2" fill-opacity="1" stroke-opacity="1"/><path d="M483,617L545,870L618,667Z" fill="#4a93d0" stroke="#4a93d0" fill-opacity="1" stroke-opacity="1"/><path d="M618,667L545,870L701,766Z" fill="#4189cb" stroke="#4189cb" fill-opacity="1" stroke-opacity="1"/><path d="M618,667L701,766L782,644Z" fill="#378ecc" stroke="#378ecc" fill-opacity="1" stroke-opacity="1"/><path d="M782,644L701,766L915,768Z" fill="#2a85c8" stroke="#2a85c8" fill-opacity="1" stroke-opacity="1"/><path d="M782,644L915,768L919,703Z" fill="#2084c7" stroke="#2084c7" fill-opacity="1" stroke-opacity="1"/><path d="M919,703L915,768L1069,675Z" fill="#147ec3" stroke="#147ec3" fill-opacity="1" stroke-opacity="1"/><path d="M1069,675L915,768L1156,857Z" fill="#0a74be" stroke="#0a74be" fill-opacity="1" stroke-opacity="1"/><path d="M1069,675L1156,857L1247,789Z" fill="#006dba" stroke="#006dba" fill-opacity="1" stroke-opacity="1"/><path d="M1069,675L1247,789L1313,624Z" fill="#0074bd" stroke="#0074bd" fill-opacity="1" stroke-opacity="1"/><path d="M1313,624L1247,789L1400,649Z" fill="#006fba" stroke="#006fba" fill-opacity="1" stroke-opacity="1"/><path d="M1400,649L1247,789L1445,774Z" fill="#0067b6" stroke="#0067b6" fill-opacity="1" stroke-opacity="1"/><path d="M1400,649L1445,774L1602,734Z" fill="#0063b3" stroke="#0063b3" fill-opacity="1" stroke-opacity="1"/><path d="M1602,734L1445,774L1630,873Z" fill="#0056ad" stroke="#0056ad" fill-opacity="1" stroke-opacity="1"/><path d="M23,786L545,870L240,785Z" fill="#6394d2" stroke="#6394d2" fill-opacity="1" stroke-opacity="1"/><path d="M240,785L545,870L352,790Z" fill="#5a90cf" stroke="#5a90cf" fill-opacity="1" stroke-opacity="1"/><path d="M545,870L789,876L701,766Z" fill="#397ec5" stroke="#397ec5" fill-opacity="1" stroke-opacity="1"/><path d="M701,766L789,876L915,768Z" fill="#297cc3" stroke="#297cc3" fill-opacity="1" stroke-opacity="1"/><path d="M789,876L1630,873L1156,857Z" fill="#0060b4" stroke="#0060b4" fill-opacity="1" stroke-opacity="1"/><path d="M789,876L1156,857L915,768Z" fill="#1671bd" stroke="#1671bd" fill-opacity="1" stroke-opacity="1"/><path d="M1156,857L1630,873L1445,774Z" fill="#0059af" stroke="#0059af" fill-opacity="1" stroke-opacity="1"/><path d="M1156,857L1445,774L1247,789Z" fill="#0063b4" stroke="#0063b4" fill-opacity="1" stroke-opacity="1"/></g></svg>